<svg width="256" height="256" xmlns="http://www.w3.org/2000/svg"><defs><style/></defs><path d="M11.28 63.92Q8 60.64 8 56q0-4.64 3.28-7.92 3.28-3.28 7.92-3.28h10.672q4.64 0 7.92 3.28 3.28 3.28 3.28 7.92 0 4.64-3.28 7.92-3.28 3.28-7.92 3.28H19.2q-4.64 0-7.92-3.28zm48 0Q56 60.64 56 56q0-4.64 3.28-7.92 3.28-3.28 7.92-3.28h128q4.64 0 7.92 3.28 3.28 3.28 3.28 7.92 0 4.64-3.28 7.92-3.28 3.28-7.92 3.28h-128q-4.64 0-7.92-3.28zm94.688 104.8a7.152 7.152 0 0 1 0-13.312l15.744-6.208a28.624 28.624 0 0 0 16.112-16.128l6.208-15.744a7.152 7.152 0 0 1 13.312 0l6.208 15.728a28.64 28.64 0 0 0 16.128 16.128l15.744 6.208a7.152 7.152 0 0 1 0 13.312l-15.888 6.256c-7.296 2.88-12.944 8.256-15.84 15.552l-6.4 16.192c-2.368 6.08-10.96 5.92-13.36-.16l-6.112-15.488a28.624 28.624 0 0 0-16.112-16.128l-15.744-6.208zM11.28 135.92Q8 132.64 8 128q0-4.64 3.28-7.92 3.28-3.28 7.92-3.28h10.672q4.64 0 7.92 3.28 3.28 3.28 3.28 7.92 0 4.64-3.28 7.92-3.28 3.28-7.92 3.28H19.2q-4.64 0-7.92-3.28zm48 0Q56 132.64 56 128q0-4.64 3.28-7.92 3.28-3.28 7.92-3.28h64q4.64 0 7.92 3.28 3.28 3.28 3.28 7.92 0 4.64-3.28 7.92-3.28 3.28-7.92 3.28h-64q-4.64 0-7.92-3.28zm-48 72Q8 204.64 8 200q0-4.64 3.28-7.92 3.28-3.28 7.92-3.28h10.672q4.64 0 7.92 3.28 3.28 3.28 3.28 7.92 0 4.64-3.28 7.92-3.28 3.28-7.92 3.28H19.2q-4.64 0-7.92-3.28zm48 0Q56 204.64 56 200q0-4.64 3.28-7.92 3.28-3.28 7.92-3.28h64q4.64 0 7.92 3.28 3.28 3.28 3.28 7.92 0 4.64-3.28 7.92-3.28 3.28-7.92 3.28h-64q-4.64 0-7.92-3.28z" fill-rule="evenodd" fill="#111925" fill-opacity=".85"/></svg>