<svg width="256" height="256" xmlns="http://www.w3.org/2000/svg"><defs><style/></defs><path d="M58.672 215.824V39.504c0-3.552 1.248-6.576 3.744-9.088a12.352 12.352 0 0 1 9.072-3.744h61.84c7.232 0 14.16 1.392 20.768 4.192 6.384 2.704 12.032 6.512 16.96 11.424a52.848 52.848 0 0 1 11.424 16.96A52.913 52.913 0 0 1 186.672 80c0 7.232-1.408 14.144-4.192 20.768a52.896 52.896 0 0 1-15.28 20.448 55.552 55.552 0 0 1 19.072 12.512 56.029 56.029 0 0 1 12 17.808c2.928 6.944 4.4 14.208 4.4 21.792 0 7.6-1.472 14.864-4.416 21.808a55.266 55.266 0 0 1-12 17.792 55.552 55.552 0 0 1-17.792 12 55.392 55.392 0 0 1-21.792 4.4H72.16a13.024 13.024 0 0 1-9.552-3.952 13.024 13.024 0 0 1-3.952-9.552zM170.672 80c0-10.304-3.648-19.104-10.944-26.4a35.968 35.968 0 0 0-26.4-10.928H74.672v74.656h58.656c10.32 0 19.12-3.632 26.4-10.928A35.968 35.968 0 0 0 170.672 80zm-24 133.328c11.04 0 20.48-3.904 28.272-11.712a38.544 38.544 0 0 0 11.728-28.288c0-11.04-3.904-20.48-11.728-28.272a38.544 38.544 0 0 0-28.272-11.728h-72v80h72z" fill="#111925"/></svg>