<svg width="256" height="256" xmlns="http://www.w3.org/2000/svg"><defs><style/></defs><path d="M237.328 128a109.328 109.328 0 0 1-157.92 97.968 104.48 104.48 0 0 1-5.872-3.2 2.608 2.608 0 0 0-1.984-.272l-25.2 6.752a16 16 0 0 1-19.6-19.6l6.752-25.168a2.624 2.624 0 0 0-.288-2.016A108.896 108.896 0 0 1 18.656 128a109.336 109.336 0 1 1 218.672 0zM40 128a87.568 87.568 0 0 0 10.704 42.08l.912 1.6a23.838 23.838 0 0 1 2.48 18.32l-4.336 16.24 16.288-4.352a23.932 23.932 0 0 1 17.152 1.824l1.12.624 3.328 1.872 1.28.64A88 88 0 1 0 40 128zm26.672 0a13.328 13.328 0 1 1 26.656 0 13.328 13.328 0 0 1-26.656 0zm48 0a13.328 13.328 0 1 1 26.656 0 13.328 13.328 0 0 1-26.656 0zm74.656 0a13.328 13.328 0 1 1-26.656 0 13.328 13.328 0 0 1 26.656 0z"/></svg>