<svg width="256" height="256" xmlns="http://www.w3.org/2000/svg"><defs><style/></defs><path d="M202.667 181.333a21.333 21.333 0 1 0-42.667 0 21.333 21.333 0 0 0 42.667 0zM74.667 32a42.688 42.688 0 0 1 41.322 32h86.678a10.667 10.667 0 0 1 0 21.333h-86.678A42.688 42.688 0 0 1 32 74.667 42.667 42.667 0 0 1 74.667 32zM224 181.333A42.667 42.667 0 0 1 140.01 192H53.334a10.667 10.667 0 1 1 0-21.333h86.678A42.688 42.688 0 0 1 224 181.333zM53.333 74.667a21.333 21.333 0 1 0 42.667 0 21.333 21.333 0 0 0-42.667 0z"/></svg>