<svg width="256" height="256" xmlns="http://www.w3.org/2000/svg"><defs><style/></defs><path d="M224 106.672A10.672 10.672 0 0 0 213.328 96H106.672A10.672 10.672 0 0 0 96 106.672v106.656A10.66 10.66 0 0 0 106.672 224h106.656A10.672 10.672 0 0 0 224 213.328V106.672zm-64-64A10.72 10.72 0 0 0 149.328 32H42.672A10.72 10.72 0 0 0 32 42.672v106.656A10.72 10.72 0 0 0 42.672 160a10.672 10.672 0 1 1 0 21.328c-17.632 0-32-14.368-32-32V42.672c0-17.632 14.368-32 32-32h106.656c17.632 0 32 14.368 32 32a10.672 10.672 0 1 1-21.328 0zm85.328 170.656a32 32 0 0 1-32 32H106.672a32 32 0 0 1-32-32V106.672a32 32 0 0 1 32-32h106.656a32 32 0 0 1 32 32v106.656z" fill="#111925" fill-opacity=".85"/></svg>