<svg width="256" height="256" xmlns="http://www.w3.org/2000/svg"><defs><style/></defs><path d="M213.333 53.333a10.667 10.667 0 0 0-10.666-10.666h-96v170.666h96a10.667 10.667 0 0 0 10.666-10.666V53.333zM141.792 88.46a10.667 10.667 0 0 1 15.083 0l32 32a10.667 10.667 0 0 1 0 15.082l-32 32a10.667 10.667 0 1 1-15.083-15.082L166.251 128l-24.459-24.459a10.667 10.667 0 0 1 0-15.082zM42.667 202.667a10.667 10.667 0 0 0 10.666 10.666h32V42.667h-32a10.667 10.667 0 0 0-10.666 10.666v149.334zm192 0a32 32 0 0 1-32 32H53.333a32 32 0 0 1-32-32V53.333a32 32 0 0 1 32-32h149.334a32 32 0 0 1 32 32v149.334z"/></svg>