<svg width="256" height="256" xmlns="http://www.w3.org/2000/svg"><defs><style/></defs><path d="M138.662 128a10.662 10.662 0 1 0-3.57 7.936c.127-.14.255-.294.409-.435a10.829 10.829 0 0 1 .448-.422 10.598 10.598 0 0 0 2.714-7.079zM192 202.662a10.624 10.624 0 0 0 3.149 7.565 10.662 10.662 0 0 0 15.078-15.078 10.624 10.624 0 0 0-14.656-.435c-.128.14-.256.307-.41.448-.128.14-.294.256-.448.397a10.624 10.624 0 0 0-2.713 7.104zm42.663 0a32 32 0 0 1-32 32c-6.106 0-11.777-1.74-16.64-4.71a117.312 117.312 0 0 1-75.61 14.067A117.338 117.338 0 1 1 244.019 110.4a117.312 117.312 0 0 1-14.054 75.623c2.957 4.85 4.697 10.534 4.698 16.64zM160 128c0 4.928-1.152 9.587-3.162 13.76l32.065 32.051a31.834 31.834 0 0 1 24.192-1.382A95.987 95.987 0 1 0 32.14 123.2a96 96 0 0 0 140.288 89.894 31.834 31.834 0 0 1 1.382-24.192l-32.051-32.064C137.587 158.835 132.928 160 128 160a32 32 0 1 1 32-32z"/></svg>