<svg width="256" height="256" xmlns="http://www.w3.org/2000/svg"><defs><style/></defs><path d="M200.72 44.048c-9.92 6.592-22.704 9.28-37.168 9.28-15.12 0-28.928-6.496-40.64-11.52C110.512 36.48 98.96 32 85.328 32a53.355 53.355 0 0 0-32 10.672v103.2a74.656 74.656 0 0 1 32-7.2c18.336 0 33.488 6.16 46.624 11.424 13.536 5.408 25.056 9.904 38.72 9.904l2.144-.048a53.328 53.328 0 0 0 29.856-10.624V42.672l-1.952 1.376zM224 149.328a21.328 21.328 0 0 1-8.528 17.072 74.672 74.672 0 0 1-41.792 14.88l-3.008.048c-18.336 0-33.488-6.16-46.624-11.424-13.536-5.408-25.056-9.904-38.72-9.904-11.568 0-22.8 3.76-32 10.672v64a10.672 10.672 0 1 1-21.328 0v-192A21.328 21.328 0 0 1 40.528 25.6a74.672 74.672 0 0 1 44.8-14.928c18.4 0 33.488 6.176 45.984 11.52C144.48 27.84 153.776 32 163.552 32c13.008 0 21.28-2.624 26.32-6.4A21.344 21.344 0 0 1 224 42.672v106.656z"/></svg>