<svg width="256" height="256" xmlns="http://www.w3.org/2000/svg"><defs><style/></defs><path d="M160 106.667c0-17.622 14.379-32 32-32h15.819A95.893 95.893 0 0 0 128 32a95.573 95.573 0 0 0-42.667 10.005v11.328a21.333 21.333 0 0 0 21.334 21.334 32 32 0 0 1 32 32 10.667 10.667 0 1 0 21.333 0zm10.667 107.328a96.363 96.363 0 0 0 43.338-43.328h-32.672a10.667 10.667 0 0 0-10.666 10.666v32.662zM32 128c0 45.685 31.915 83.883 74.667 93.579V192A10.667 10.667 0 0 0 96 181.333a32 32 0 0 1-32-32v-10.666A10.667 10.667 0 0 0 53.333 128H32zm213.333 0c0 64.8-52.533 117.333-117.333 117.333-3.947 0-7.83-.213-11.67-.586h-.127C56.939 238.805 10.667 188.81 10.667 128a117.259 117.259 0 0 1 59.05-101.824A116.757 116.757 0 0 1 128 10.666c47.744 0 88.8 28.534 107.115 69.473.288.501.533 1.034.725 1.6 6.101 14.186 9.493 29.824 9.493 46.261zm-64-21.333a32 32 0 0 1-64 0A10.667 10.667 0 0 0 106.667 96a42.667 42.667 0 0 1-42.56-39.648 95.893 95.893 0 0 0-29.686 50.315h18.912a32 32 0 0 1 32 32v10.666l.054 1.056A10.667 10.667 0 0 0 96 160a32 32 0 0 1 32 32v32c7.339 0 14.475-.853 21.333-2.421v-40.246a32 32 0 0 1 32-32h40.256A96.267 96.267 0 0 0 218.517 96H192c-5.845 0-10.667 4.821-10.667 10.667z" fill="undefined"/></svg>