<svg width="256" height="256" xmlns="http://www.w3.org/2000/svg"><defs><style/></defs><path d="M181.333 117.333a10.667 10.667 0 0 1 9.53 5.903l53.332 106.666a10.667 10.667 0 0 1-19.057 9.529l-18.404-36.764h-50.802L137.53 239.43a10.667 10.667 0 0 1-19.086-9.529l53.333-106.666a10.667 10.667 0 0 1 9.543-5.903zm-14.734 64h29.468l-14.734-29.482-14.734 29.482zM149.333 42.667a10.667 10.667 0 1 1 0 21.333h-15.63l-18.162 27.25a10.667 10.667 0 0 1-1.336 1.621L95.09 112l29.781 29.796a10.667 10.667 0 1 1-15.075 15.075L80 127.09 50.205 156.87a10.667 10.667 0 1 1-15.076-15.075L64.91 112 45.796 92.871A10.667 10.667 0 1 1 60.87 77.796L80 96.91l18.375-18.375 9.7-14.535H21.333a10.667 10.667 0 1 1 0-21.333h128zm-64-32a10.667 10.667 0 1 1 0 21.333H74.667a10.667 10.667 0 1 1 0-21.333h10.666z"/></svg>