<svg width="256" height="256" xmlns="http://www.w3.org/2000/svg"><defs><style/></defs><path d="M12.624 41.867c-7.29 14.314-7.29 33.05-7.29 84.832v2.602c0 51.787 0 70.517 7.29 84.832a66.907 66.907 0 0 0 29.243 29.243c14.314 7.29 33.05 7.29 84.832 7.29h2.602c51.787 0 70.518 0 84.832-7.29a66.907 66.907 0 0 0 29.243-29.243c7.29-14.314 7.29-33.05 7.29-84.832V126.7c0-51.787 0-70.517-7.29-84.832a66.907 66.907 0 0 0-29.243-29.243c-14.314-7.29-33.05-7.29-84.832-7.29H126.7c-51.787 0-70.518 0-84.832 7.29a66.907 66.907 0 0 0-29.243 29.243zM89.909 160h11.43a10.667 10.667 0 0 1 0 21.333h-11.43c-14.555 0-26.965-5.227-37.242-15.69-10.214-10.4-15.328-22.955-15.328-37.643 0-14.688 5.109-27.237 15.328-37.643 10.277-10.464 22.693-15.69 37.242-15.69h11.43a10.667 10.667 0 1 1 0 21.333h-11.43c-8.587 0-15.93 3.104-22.021 9.307-6.144 6.256-9.216 13.818-9.216 22.693 0 8.875 3.072 16.437 9.216 22.693C73.978 156.896 81.323 160 89.92 160zm64.758 0h11.429c8.587 0 15.93-3.104 22.021-9.307 6.144-6.256 9.216-13.818 9.216-22.693 0-8.875-3.072-16.437-9.216-22.693-6.09-6.203-13.434-9.307-22.021-9.307h-11.43a10.667 10.667 0 0 1 0-21.333h11.43c14.56 0 26.97 5.227 37.243 15.69 10.218 10.4 15.328 22.955 15.328 37.643 0 14.688-5.11 27.237-15.328 37.643-10.272 10.464-22.688 15.69-37.243 15.69h-11.43a10.667 10.667 0 0 1 0-21.333zm-64-21.333a10.667 10.667 0 0 1 0-21.334h74.666a10.667 10.667 0 0 1 0 21.334H90.667z" fill="#FF8928"/></svg>