<svg width="256" height="256" xmlns="http://www.w3.org/2000/svg"><defs><style/></defs><path d="M48 69.328V34.08l-8.976 2.992a5.33 5.33 0 1 1-3.376-10.112l13.76-4.592a7.952 7.952 0 0 1 4.48-.4 6.208 6.208 0 0 1 3.728 2.688 7.952 7.952 0 0 1 1.056 4.384v40.32a5.336 5.336 0 0 1-10.672 0zM104 56a8 8 0 0 1 0-16h117.328a8 8 0 0 1 0 16H104zm-40 99.2H40a5.872 5.872 0 0 1-5.872-5.872 12.48 12.48 0 0 1 3.264-8.56l17.44-19.616a5.072 5.072 0 0 0 1.232-2.592l.032-.192a4.8 4.8 0 0 0-1.12-4.064 4.8 4.8 0 0 0-3.824-1.76 4.88 4.88 0 0 0-3.072 1.04 4.88 4.88 0 0 0-1.776 2.736l-.608 2.432a5.872 5.872 0 1 1-11.392-2.848l.608-2.416c.928-3.728 2.912-6.784 5.936-9.152 3.04-2.352 6.464-3.536 10.304-3.536a16 16 0 0 1 12.784 5.92 16 16 0 0 1 3.744 13.568l-.032.192c-.544 3.2-1.888 6.032-4.048 8.464l-12.912 14.512H64a5.872 5.872 0 0 1 0 11.744zm40-19.2a8 8 0 1 1 0-16h117.328a8 8 0 0 1 0 16H104zm-59.84 83.84l.608.624a9.872 9.872 0 0 0 7.248 2.992c.4 0 .8-.048 1.184-.144l1.44-.352c2.32-.592 3.488-2.08 3.488-4.48a4.448 4.448 0 0 0-1.344-3.264 4.448 4.448 0 0 0-3.264-1.36h-2.848a5.872 5.872 0 0 1 0-11.728h1.248c1.44 0 2.64-.544 3.6-1.616a4.592 4.592 0 0 0 1.152-3.776 4.64 4.64 0 0 0-1.584-3.008 4.64 4.64 0 0 0-3.168-1.2h-1.472a6.24 6.24 0 0 0-4.576 1.904l-1.728 1.712a5.872 5.872 0 1 1-8.288-8.288l1.712-1.728c3.552-3.552 7.84-5.328 12.88-5.328h1.472c4.16 0 7.808 1.376 10.944 4.128 3.12 2.768 4.944 6.208 5.456 10.352a15.728 15.728 0 0 1-3.056 11.84 15.728 15.728 0 0 1 4.608 11.36 15.92 15.92 0 0 1-3.472 10.064 15.92 15.92 0 0 1-8.912 5.792l-1.44.368a21.184 21.184 0 0 1-19.584-5.936l-.608-.624a5.872 5.872 0 1 1 8.288-8.288zM104 216a8 8 0 1 1 0-16h117.328a8 8 0 0 1 0 16H104z" fill="#111925"/></svg>