<svg width="256" height="256" xmlns="http://www.w3.org/2000/svg"><defs><style/></defs><path d="M59.797 32.533a117.344 117.344 0 1 1 98.699 208.768 117.333 117.333 0 0 1-79.552-6.72 10.656 10.656 0 0 0-5.43-.49l-35.786 10.464-.245.074a21.355 21.355 0 0 1-26.379-24.917l.31-1.141 11.125-34.368a10.645 10.645 0 0 0-.502-5.856 117.323 117.323 0 0 1 37.76-145.814zm75.84-.224a96 96 0 0 0-95.861 133.515l1.75 3.861.298.704a32 32 0 0 1 1.515 18.667 10.688 10.688 0 0 1-.278.992l-10.986 33.92 36.074-10.539a32 32 0 0 1 16.384.523l2.134.725.714.31a96 96 0 1 0 48.246-182.678z"/></svg>