<svg width="256" height="256" xmlns="http://www.w3.org/2000/svg"><defs><style/></defs><path d="M74.667 202.667a21.333 21.333 0 1 1 42.666 0 21.333 21.333 0 0 1-42.666 0zm64 0a21.333 21.333 0 1 1 42.666 0 21.333 21.333 0 0 1-42.666 0zm-64-74.667a21.333 21.333 0 1 1 42.666 0 21.333 21.333 0 0 1-42.666 0zm64 0a21.333 21.333 0 1 1 42.666 0 21.333 21.333 0 0 1-42.666 0zm-64-74.667a21.333 21.333 0 1 1 42.666 0 21.333 21.333 0 0 1-42.666 0zm64 0a21.333 21.333 0 1 1 42.666 0 21.333 21.333 0 0 1-42.666 0z"/></svg>