<svg width="256" height="256" xmlns="http://www.w3.org/2000/svg"><defs><style/></defs><path d="M12.624 41.867c-7.29 14.314-7.29 33.05-7.29 84.832v2.602c0 51.787 0 70.517 7.29 84.832a66.907 66.907 0 0 0 29.243 29.243c14.314 7.29 33.05 7.29 84.832 7.29h2.602c51.787 0 70.518 0 84.832-7.29a66.907 66.907 0 0 0 29.243-29.243c7.29-14.314 7.29-33.05 7.29-84.832V126.7c0-51.787 0-70.517-7.29-84.832a66.907 66.907 0 0 0-29.243-29.243c-14.314-7.29-33.05-7.29-84.832-7.29H126.7c-51.787 0-70.518 0-84.832 7.29a66.907 66.907 0 0 0-29.243 29.243zM128 122.667h21.333c5.888 0 10.917-2.08 15.083-6.251a20.555 20.555 0 0 0 6.25-15.083c0-5.893-2.08-10.917-6.25-15.082A20.555 20.555 0 0 0 149.333 80h-48v106.667a10.667 10.667 0 1 1-21.333 0V69.333a10.667 10.667 0 0 1 10.667-10.666h58.666c11.782 0 21.835 4.165 30.166 12.496C187.84 79.493 192 89.552 192 101.333c0 11.787-4.165 21.84-12.501 30.171-8.331 8.33-18.379 12.496-30.166 12.496H128a10.667 10.667 0 0 1 0-21.333z" fill="#FF3B41"/></svg>