<svg width="256" height="256" xmlns="http://www.w3.org/2000/svg"><defs><style/></defs><path d="M127.792 21.328a106.656 106.656 0 0 0-89.36 48.128 106.56 106.56 0 0 0-5.2 8.784 8 8 0 1 0 14.128 7.488 90.56 90.56 0 0 1 16.16-21.84 90.656 90.656 0 0 1 64.272-26.56 90.832 90.832 0 0 1 89.728 76.224l-23.936-13.664a8 8 0 0 0-7.936 13.888l36.928 21.104a7.952 7.952 0 0 0 8.16 0 8 8 0 0 0 3.936-7.024c-.08-58.848-47.904-106.528-106.88-106.528zM21.328 128.16a7.952 7.952 0 0 1 7.232-8.112 7.968 7.968 0 0 1 4.864 1.088l36.928 21.104a8 8 0 1 1-7.936 13.888L38.48 142.464a90.832 90.832 0 0 0 89.728 76.224 90.656 90.656 0 0 0 76-40.944c1.6-2.4 3.072-4.896 4.432-7.456a8 8 0 0 1 14.128 7.488 106.56 106.56 0 0 1-18.976 25.664 106.656 106.656 0 0 1-75.584 31.248c-58.976 0-106.8-47.68-106.88-106.528z" fill-rule="evenodd" fill="#111925"/></svg>