<svg width="256" height="256" xmlns="http://www.w3.org/2000/svg"><defs><style/></defs><path d="M64.032 159.888a33.92 33.92 0 0 1 20.016 7.312l2.352 2.048.128.128c12.672 12.512 12.512 32.576 1.632 45.472v.016c-4.72 5.616-11.216 9.76-17.488 12.8a120.48 120.48 0 0 1-19.44 7.264 184.8 184.8 0 0 1-22.56 4.912l-.416.048-.112.016h-.064a10.672 10.672 0 0 1-12-11.984l10.592 1.408-10.576-1.408v-.064l.016-.112.064-.384a118.176 118.176 0 0 1 1.104-6.448c.784-4.176 2.016-9.92 3.792-16.128 1.76-6.192 4.16-13.088 7.264-19.456 3.056-6.256 7.184-12.768 12.8-17.488a33.917 33.917 0 0 1 22.896-7.952zM234.736 10.672c5.856.032 10.592 4.8 10.592 10.656 0 29.984-8.416 82.208-62.432 121.76.912 3.824 1.952 8.848 2.672 14.4.768 6.048 1.216 13.024.576 19.872-.64 6.768-2.368 14.208-6.608 20.56v.016c-7.248 10.816-20.896 17.104-30.448 20.56a134.56 134.56 0 0 1-18.688 5.248l-.336.064h-.128l-.016.032a10.672 10.672 0 0 1-12.592-10.512v-48.912l-25.744-25.76H42.672a10.672 10.672 0 0 1-10.496-12.56L42.672 128c-9.696-1.76-10.432-1.888-10.496-1.92v-.032l.016-.112.08-.336.24-1.2a135.008 135.008 0 0 1 5.008-17.472c3.456-9.552 9.728-23.216 20.56-30.464 6.352-4.24 13.792-5.984 20.56-6.608 6.848-.64 13.824-.192 19.872.576 5.6.72 10.672 1.792 14.496 2.704a148.08 148.08 0 0 1 121.728-62.464zM63.36 181.2a12.592 12.592 0 0 0-8.496 2.96c-2.4 2-4.928 5.52-7.376 10.528a99.392 99.392 0 0 0-5.92 15.952c-.48 1.76-.944 3.488-1.36 5.12 1.664-.4 3.392-.848 5.136-1.344a99.36 99.36 0 0 0 15.952-5.92c5.008-2.432 8.528-4.96 10.528-7.36l.016-.016c4.24-5.024 3.856-12.416-.288-16.544a12.576 12.576 0 0 0-8.192-3.36zm100.272-26a250.105 250.105 0 0 1-24.96 12.016v32.304c1.024-.32 2.08-.688 3.136-1.088 9.216-3.328 16.896-7.712 20-12.352 1.52-2.304 2.656-5.84 3.104-10.688.432-4.768.16-10.048-.512-15.168a108.96 108.96 0 0 0-.768-5.024zm59.92-122.768A126.72 126.72 0 0 0 126.4 91.52l-.064.112a224 224 0 0 0-17.808 33.808l22.048 22.048a227.788 227.788 0 0 0 34.256-17.76c45.072-30.272 56.544-69.84 58.72-97.296zM80.608 91.088c-4.848.464-8.4 1.6-10.688 3.12-4.64 3.104-9.024 10.784-12.352 19.984a103.248 103.248 0 0 0-1.088 3.136H88.8A249.288 249.288 0 0 1 100.992 92.4a109.408 109.408 0 0 0-5.216-.8 70.624 70.624 0 0 0-15.168-.512z"/></svg>