<svg width="256" height="256" xmlns="http://www.w3.org/2000/svg"><defs><style/></defs><path d="M213.328 53.344a10.672 10.672 0 1 0-21.328 0 10.672 10.672 0 0 0 21.328 0zM64 202.672a10.672 10.672 0 1 0-21.344 0 10.672 10.672 0 0 0 21.344 0zm85.328-74.656a21.336 21.336 0 1 0-42.672 0 21.336 21.336 0 0 0 42.672 0zm-64 74.656a32 32 0 1 1-59.296-16.64A117.328 117.328 0 0 1 148.416 12.464a10.667 10.667 0 0 1-3.712 21.008 96 96 0 0 0-101.808 138.96 32 32 0 0 1 42.432 30.24zm85.328-74.656A42.672 42.672 0 1 1 85.328 128a42.672 42.672 0 0 1 85.328 0zm64-74.672c0 6.08-1.728 11.76-4.688 16.608a117.328 117.328 0 0 1-122.32 173.616 10.672 10.672 0 0 1 3.696-21.008 96 96 0 0 0 101.76-138.992 32 32 0 1 1 21.568-30.224z" fill="#111925"/></svg>