<svg width="256" height="256" xmlns="http://www.w3.org/2000/svg"><defs><style/></defs><path d="M197.328 34.672v88c0 9.392-1.808 18.4-5.44 26.992-3.52 8.288-8.48 15.632-14.864 22.032-6.4 6.4-13.744 11.344-22.032 14.848C146.4 190.176 137.392 192 128 192c-9.408 0-18.4-1.824-26.992-5.44a68.784 68.784 0 0 1-22.032-14.88c-6.4-6.384-11.36-13.728-14.864-22.016a68.592 68.592 0 0 1-5.44-26.992v-88a8 8 0 1 1 16 0v88a52.928 52.928 0 0 0 15.616 37.712A52.928 52.928 0 0 0 128 176a52.928 52.928 0 0 0 37.712-15.616 52.928 52.928 0 0 0 15.616-37.712v-88a8 8 0 0 1 16 0zM50.672 229.328a8 8 0 0 1 0-16h154.656a8 8 0 0 1 0 16H50.672z" fill="#111925"/></svg>