<svg width="256" height="256" xmlns="http://www.w3.org/2000/svg"><defs><style/></defs><path d="M12.624 41.867c-7.29 14.314-7.29 33.05-7.29 84.832v2.602c0 51.787 0 70.517 7.29 84.832a66.907 66.907 0 0 0 29.243 29.243c14.314 7.29 33.05 7.29 84.832 7.29h2.602c51.787 0 70.518 0 84.832-7.29a66.907 66.907 0 0 0 29.243-29.243c7.29-14.314 7.29-33.05 7.29-84.832V126.7c0-51.787 0-70.517-7.29-84.832a66.907 66.907 0 0 0-29.243-29.243c-14.314-7.29-33.05-7.29-84.832-7.29H126.7c-51.787 0-70.518 0-84.832 7.29a66.907 66.907 0 0 0-29.243 29.243zm40.71 43.466a10.667 10.667 0 1 1 21.333 0v72.8l45.418-50.256a10.667 10.667 0 0 1 15.83 0l45.418 50.256v-72.8a10.667 10.667 0 1 1 21.334 0v75.68q0 13.872-12.859 18.912-12.95 5.078-22.293-5.264L128 130.94l-39.52 43.72q-9.333 10.341-22.288 5.264-12.859-5.034-12.859-18.906V85.333z" fill="#008CFF"/></svg>